<?xml version="1.0" standalone="no"?>
<!DOCTYPE svg PUBLIC "-//W3C//DTD SVG 20010904//EN"
 "http://www.w3.org/TR/2001/REC-SVG-20010904/DTD/svg10.dtd">
<svg version="1.0" xmlns="http://www.w3.org/2000/svg"
 width="512.000000pt" height="512.000000pt" viewBox="0 0 512.000000 512.000000"
 preserveAspectRatio="xMidYMid meet">
<metadata>
Created by potrace 1.14, written by Peter Selinger 2001-2017
</metadata>
<g transform="translate(0.000000,512.000000) scale(0.100000,-0.100000)"
fill="#000000" stroke="none">
<path d="M2345 5114 c-629 -65 -1168 -317 -1595 -744 -392 -392 -638 -884
-727 -1450 -25 -162 -25 -558 0 -720 89 -566 335 -1058 727 -1450 392 -392
884 -638 1450 -727 162 -25 558 -25 720 0 566 89 1058 335 1450 727 392 392
638 884 727 1450 25 162 25 558 0 720 -89 566 -335 1058 -727 1450 -389 389
-884 638 -1440 725 -101 16 -493 28 -585 19z m410 -1810 c267 -72 476 -282
551 -555 25 -89 25 -289 0 -378 -75 -275 -282 -482 -557 -557 -89 -25 -289
-25 -378 0 -275 75 -482 282 -557 557 -25 89 -25 289 0 378 84 305 329 524
641 575 55 8 239 -3 300 -20z m-1210 -921 c11 -75 53 -201 97 -288 95 -189
258 -354 445 -449 455 -231 1001 -104 1303 304 86 116 166 303 185 433 l7 47
634 0 634 0 0 -40 c0 -73 -31 -261 -64 -394 -75 -296 -205 -568 -388 -814 -92
-125 -335 -368 -460 -460 -921 -685 -2195 -594 -3003 213 -377 377 -626 906
-662 1408 l-6 87 635 0 636 0 7 -47z"/>
<path d="M2454 3055 c-380 -82 -530 -548 -269 -834 261 -285 731 -188 854 176
63 188 19 376 -124 518 -79 79 -150 119 -253 141 -81 17 -128 17 -208 -1z"/>
</g>
</svg>
